<svg xmlns="http://www.w3.org/2000/svg" viewBox="0 0 320 320" role="img" aria-label="CandleCast logo">
  <rect width="320" height="320" rx="40" fill="#181A20" />

  <g stroke="#C9A24B" stroke-width="1.5" stroke-linecap="round">
    <line x1="73" y1="120" x2="73" y2="205" />
    <rect x="63" y="140" width="20" height="55" fill="#181818" />

    <line x1="115" y1="85" x2="115" y2="190" />
    <rect x="105" y="100" width="20" height="75" fill="#E8DFC8" />

    <line x1="157" y1="105" x2="157" y2="205" />
    <rect x="147" y="125" width="20" height="65" fill="#181818" />

    <line x1="199" y1="60" x2="199" y2="170" />
    <rect x="189" y="75" width="20" height="80" fill="#E8DFC8" />
  </g>

  <polyline points="48,258 92,230 130,252 172,212 215,234 252,170" fill="none" stroke="#D4A82C" stroke-width="4"
    stroke-linecap="round" stroke-linejoin="round" stroke-dasharray="2 9" />

  <path d="M 256 166 L 240 174 L 252 180 L 246 192 Z" fill="#D4A82C" />

  <rect x="220" y="200" width="56" height="40" rx="9" fill="#181A20" stroke="#D4A82C" stroke-width="2" />
  <text x="248" y="228" font-family="-apple-system, BlinkMacSystemFont, 'Segoe UI', system-ui, sans-serif"
    font-size="20" font-weight="700" fill="#D4A82C" text-anchor="middle">AI</text>
</svg>